<svg xmlns="http://www.w3.org/2000/svg" pointer-events="none" class="leaflet-zoom-animated" width="1139" height="622" viewBox="-116 -133 1139 622" style="transform: translate3d(-116px, -133px, 0px);"><g><path class="leaflet-interactive" stroke="#201920" stroke-opacity="1" stroke-width="2" stroke-linecap="round" stroke-linejoin="round" fill="none" d="M41 173L40 166L37 163L42 160L41 157L44 152L48 152L51 149L53 149L53 146L56 147L61 144L63 149L69 147L69 149L73 145L74 140L76 138L87 138L86 137L89 136L90 133L95 132L104 126L113 123L115 119L113 113L118 109L116 109L116 107L120 106L120 100L116 92L116 82L113 79L111 80L112 76L116 76L117 74L123 74L131 70L134 73L137 72L140 74L141 71L137 68L137 66L146 40L150 42L151 41L155 44L165 44L168 46L171 43L173 43L176 40L174 24L178 19L186 18L189 12L188 9L190 7L201 7L201 11L199 12L211 25L215 27L220 26L223 30L225 29L227 32L229 32L231 40L236 45L237 48L237 53L235 55L237 59L233 64L233 69L235 73L250 76L263 76L279 87L287 88L286 91L289 95L292 104L298 112L307 111L333 115L348 113L357 115L362 120L369 121L383 127L390 125L390 129L396 130L398 127L424 116L445 117L454 114L460 109L460 107L464 103L471 100L475 96L469 87L470 82L475 75L480 75L484 79L494 81L500 77L504 70L514 70L523 65L527 56L531 54L537 54L536 53L538 50L540 52L547 48L553 49L553 47L556 50L564 50L566 48L564 41L561 40L557 33L552 31L550 27L542 26L537 33L531 29L524 29L520 32L516 28L515 24L519 22L519 18L522 13L521 12L529 -5L541 1L551 -7L555 -7L559 -11L557 -15L561 -21L561 -25L564 -28L567 -37L575 -46L573 -50L575 -54L572 -56L567 -55L567 -59L569 -59L570 -62L576 -68L584 -69L591 -72L599 -71L603 -73L615 -70L617 -67L621 -65L624 -67L629 -65L632 -62L631 -61L633 -61L635 -58L634 -56L639 -52L638 -50L640 -50L638 -48L641 -47L641 -40L643 -38L642 -37L645 -32L644 -31L646 -31L645 -28L649 -22L650 -13L653 -12L652 -5L656 0L666 -1L666 1L669 3L674 2L675 5L676 4L679 7L678 8L683 12L688 12L686 16L687 19L689 19L690 22L688 26L692 32L709 32L710 29L713 28L716 24L719 25L728 20L735 21L736 19L738 19L735 22L733 22L732 26L735 32L727 39L728 42L726 44L726 50L724 52L725 55L720 62L720 66L716 69L716 73L714 76L702 71L695 78L694 77L692 79L695 92L695 102L693 108L685 112L687 116L683 112L683 110L679 108L677 116L675 118L673 116L668 123L658 124L661 129L659 133L651 131L650 132L648 130L647 131L647 127L643 127L641 129L641 133L634 140L626 144L623 146L624 147L622 147L616 152M97 268L94 264L93 259L97 257L99 261L103 259L103 254L101 251L102 250L97 246L96 239L100 235L97 232L93 232L91 230L89 218L82 219L72 215L72 213L67 214L68 213L65 210L66 205L64 202L56 197L53 198L53 196L50 197L48 195L53 194M417 395L415 395L415 391L413 389L417 384L411 384L409 382L406 383L402 381L399 377L396 380L394 380L392 384L388 386L386 384L384 388L381 385L379 385L379 387L377 385L373 389L368 385L364 389L360 390L358 388L357 395L359 397L359 405L356 403L353 404L353 400L351 397L346 401L342 401L340 399L341 398L338 397L338 393L330 393L329 392L331 390L330 389L332 388L331 385L333 381L328 381L326 379L326 373L324 371L326 369L317 368L315 370L311 370L313 368L311 360L314 359L313 356L318 351L318 349L321 350L321 348L324 347L323 344L325 338L324 324L323 325L321 323L321 325L319 323L318 317L316 317L316 315L314 315L313 312L310 313L308 321L305 322L299 317L291 315L286 317L285 320L273 325L269 329L269 331L265 333L254 332L249 334L249 328L248 326L243 324L244 321L241 318L238 319L238 321L234 318L226 316L220 317L219 320L215 323L215 327L213 329L211 326L211 318L205 320L204 319L204 321L192 321L187 318L183 320L182 317L180 319L181 320L179 320L176 315L170 315L169 310L167 312L164 309L162 309L158 302L154 302L155 303L152 304L148 298L143 297L140 293L138 293L135 290L135 288L134 289L128 287L125 292L126 293L124 293L122 289L111 284L108 280L101 280L100 277L97 276L97 268M430 400L424 398L423 399L419 397L419 395L417 395M445 464L451 476M556 467L556 480M566 431L560 443M588 398L580 409M595 376L598 362"/><path class="leaflet-interactive" stroke="#201920" stroke-opacity="1" stroke-width="2" stroke-linecap="butt" stroke-linejoin="round" stroke-dasharray="4,4" stroke-dashoffset="4" fill="none" d="M53 194L56 193L56 191L53 188L53 177L50 174L45 173L43 175L41 173"/><path class="leaflet-interactive" stroke="gray" stroke-opacity="1" stroke-width="1" stroke-linecap="round" stroke-linejoin="round" stroke-dasharray="8,4,4,4" fill="none" d="M493 392L494 393L493 392M501 388L500 387L496 391L497 393L504 393L503 387L501 388"/><path class="leaflet-interactive" stroke="#4190da" stroke-opacity="1" stroke-width="1" stroke-linecap="round" stroke-linejoin="round" fill="none" d="M499 390L497 390L498 389L494 385L495 388L493 393L492 394L492 392L491 395L489 395L490 396L487 393L486 396L485 395L480 398L477 397L475 398L476 399L473 400L472 399L461 402L460 404L455 406L459 413L456 416L452 416L449 411L449 405L451 401L448 400L444 402L442 401L442 399L437 398L432 401L432 399L430 400M457 405L457 405M457 405L459 407L455 407L457 405M493 392L493 392M499 390L499 390M499 390L499 390M499 390L499 390M565 336L562 337L564 337L566 340L562 342L563 346L562 349L560 349L562 351L564 349L565 350L563 352L562 351L562 353L562 351L558 351L557 352L559 354L557 354L556 357L557 356L555 356L555 354L555 358L553 358L551 360L553 360L550 363L545 362L545 367L537 375L531 375L530 380L529 379L527 383L523 383L520 385L517 384L515 386L511 384L509 388L506 387L506 385L504 389L502 387L500 389L503 389L501 391L499 390M565 336L565 336M587 305L585 305L587 307L586 310L584 310L586 314L584 316L583 315L580 319L578 319L580 321L577 320L574 324L573 329L569 331L569 333L567 333L568 336L564 338L567 335L565 336M583 200L581 202L576 203L577 206L576 205L573 210L570 211L569 208L568 211L570 211L562 218L562 220L559 223L560 224L557 225L557 227L559 229L560 228L561 231L570 236L575 247L577 257L583 261L583 263L588 268L588 271L580 268L578 270L582 273M582 273L589 279L589 283L591 285L588 282L578 285L586 293L589 293L591 295L587 297L589 299L589 304M583 200L583 200M583 200L583 200M593 163L590 166L590 168L589 167L587 169L586 168L586 170L580 172L579 171L579 169L584 168L584 164L586 164L581 163L580 160L583 159L585 155L587 155L589 151L588 150L590 150L592 146L587 141L578 141L578 143L576 143L572 151L568 153L567 152L561 155L561 157L559 157L559 162L554 167L551 166L549 170L544 165L542 167L542 171L541 170L539 174L541 178L543 177L543 180L550 182L553 181L557 186L558 185L558 187L555 188L554 190L555 193L557 193L559 196L564 195L564 192L566 192L569 189L569 187L575 185L581 189L582 188L584 191L590 189L592 191L597 192L594 197L596 196L595 199L594 198L592 200L588 198L584 201L583 200M583 200L583 200M587 305L587 305M587 305L587 305M587 305L587 305M589 304L587 305M589 304L589 304M591 293L591 293M591 293L591 293M591 293L591 293M593 294L591 293M591 293L589 293L588 291L592 291L593 294M593 294L593 294M593 290L594 289L593 290M593 290L592 289L593 290M593 163L593 163M616 152L616 154L613 157L604 157L593 163M594 283L594 283M594 283L595 284L594 283M596 282L596 282M439 399L439 399M442 406L442 406M446 420L446 420M448 441L437 437L437 427L445 420L461 417L464 419L465 423L460 427L458 434L448 441M457 410L457 410M457 405L457 405M459 406L457 404L459 404L459 406M459 415L459 415M460 407L459 408L460 407M466 469L466 469M469 454L470 453L469 454M470 461L470 461M470 461L470 461M471 460L471 460M471 463L471 465L471 463M471 460L471 460M472 460L472 460M472 464L473 463L472 464M472 461L473 460L472 461M473 466L473 466M475 463L476 462L475 463M478 458L478 458M478 470L478 470M478 455L478 455M479 456L479 456M479 457L479 457M480 463L480 463M480 398L481 399L480 398M481 467L480 466L482 466L481 467M481 461L482 460L481 461M482 399L482 399M483 462L483 462M483 398L482 399L483 398M483 463L483 463M484 459L484 459M484 399L484 397L484 399M485 399L485 399M485 457L485 457M487 425L487 425M487 396L487 396M488 395L488 395M488 396L488 396M489 395L489 395M493 393L493 393M494 395L494 395M495 471L495 471M495 394L495 394M495 395L495 395M495 395L496 394L495 395M496 389L496 389M496 393L496 393M496 429L497 428L496 429M496 392L498 390L499 391L496 392M496 473L496 473M497 470L497 470M497 469L498 468L497 469M498 473L498 473M499 466L500 467L499 466M500 392L499 391L500 392M500 395L500 395M500 391L501 392L500 391M500 394L500 394M501 466L501 466M501 394L501 394M501 473L501 473M501 392L501 392M501 472L501 472M502 388L502 388M502 390L502 390M503 466L503 466M503 471L504 472L503 471M505 471L505 471M505 389L505 389M506 465L507 464L506 465M507 468L507 468M509 466L508 467L509 466M520 407L520 407M520 405L522 406L520 405M529 462L529 462M529 410L529 410M530 409L531 412L529 411L531 411L530 409M534 376L532 376L534 376M540 476L542 477L540 476M544 364L544 364M545 364L544 363L546 363L545 364M546 365L547 364L546 365M548 363L549 364L547 365L548 363M551 168L551 168M553 166L553 166M553 166L554 167L553 166M560 379L560 379M560 355L562 355L560 355M561 377L561 377M561 374L561 374M561 374L561 374M562 349L562 349M562 343L562 343M562 375L561 376L562 375M562 349L562 349M563 349L563 349M563 337L562 336L564 336L563 337M563 353L563 353M563 353L563 353M564 337L564 337M565 350L565 350M566 343L565 342L566 343M566 345L566 345M566 376L567 375L566 376M566 342L566 342M567 338L567 338M568 338L568 338M568 337L568 337M568 334L568 334M568 215L568 215M570 333L570 333M570 390L570 390M570 333L571 332L570 333M571 186L571 186M572 340L572 340M573 184L574 183L573 184M574 395L573 390L569 387L567 381L567 373L578 357L584 353L588 355L588 363L585 368L582 382L577 388L576 396L574 395M574 183L574 183M575 184L575 184M575 181L575 181M575 147L576 146L575 147M575 179L576 178L575 179M577 177L577 177M577 178L577 178M578 206L577 205L578 206M578 319L578 319M578 326L578 326M579 320L578 319L579 320M580 319L580 319M582 269L589 273L584 273L580 270L581 268L582 269M583 259L583 259M583 386L584 387L583 386M584 393L585 394L584 393M585 395L585 395M585 274L584 273L585 274M586 305L586 305M586 310L586 310M587 276L584 274L586 274L587 276M587 275L590 276L587 275M587 292L587 292M587 309L588 308L587 309M587 309L587 309M588 313L588 313M588 292L587 293L588 292M588 276L588 276M588 313L588 313M588 352L588 352M588 359L588 359M588 291L589 292L588 291M588 277L589 278L588 277M589 289L589 289M589 304L589 304M590 296L589 297L590 296M590 294L590 294M590 291L589 290L590 291M590 285L590 285M590 294L590 294M590 293L590 293M590 293L590 293M591 293L591 293M591 290L591 290M591 289L592 290L591 289M591 290L591 290M591 301L591 301M591 297L590 296L591 297M591 297L591 297M592 294L591 293L592 294M592 295L593 296L592 295M592 295L593 294L592 295M592 297L591 296L593 296L592 297M593 294L594 295L593 294M593 166L593 166M594 293L594 293M594 288L593 287L594 288M595 287L595 287M595 165L595 165M596 164L597 165L596 164M596 284L596 284M597 165L597 165M598 291L598 291M598 168L598 168M598 284L598 284M599 284L598 283L599 284M601 160L600 161L601 160M601 162L601 162M602 168L603 167L602 168M604 348L607 349L603 349L604 348M607 347L607 347M607 345L609 345L607 345M607 350L608 349L607 350M607 348L607 348M608 349L608 349M609 157L609 157M617 345L619 345L617 345"/><path class="leaflet-interactive" stroke="#747569" stroke-opacity="0.6" stroke-width="1" stroke-linecap="round" stroke-linejoin="round" fill="none" d="M222 210L209 205L197 207L195 205L193 207L183 209L180 214L175 216L171 214L164 217L161 220L152 221L147 220L145 216L142 217L139 215L138 218L136 218L134 220L135 221L132 222L124 220L114 221L115 222L111 226L112 227L110 227L110 231L108 233L101 233L100 235M313 259L310 258L309 263L308 262L306 266L302 266L302 271L299 270L298 267L296 267L295 272L295 270L293 269L291 271L289 269L288 270L286 266L287 265L284 262L283 263L285 261L281 261L277 257L274 260L265 260L259 256L251 257L242 251L238 252L229 249L228 247L226 247L226 245L221 239L224 235L222 231L223 226L220 227L219 221L223 215L218 212L222 210M252 168L238 173L232 173L226 177L229 180L230 178L231 187L233 187L239 193L240 196L233 200L233 202L237 204L238 209L236 211L226 208L222 210M359 246L357 246L356 243L353 244L352 241L349 240L348 235L349 234L356 236L358 238L361 238L362 235L364 235L364 233L361 232L361 228L366 223L365 219L366 220L367 217L371 217L369 215L371 213L372 214L372 210L374 208L371 207L371 205L368 202L370 200L367 197L369 195L362 189L362 187L359 188L356 185L354 186L351 183L349 183L347 179L343 179L339 175L341 179L340 180L325 167L323 169L320 168L317 172L306 165L304 167L305 174L301 176L301 180L298 179L296 181L290 177L288 179L284 177L277 178L275 172L270 173L268 171L269 170L262 170L261 166L252 168M298 112L293 116L295 123L292 126L288 127L285 130L283 127L279 131L277 131L268 140L268 144L258 145L256 159L252 165L252 168M388 191L386 191L381 186L377 185L379 179L378 178L383 174L384 170L387 169L385 162L378 163L373 167L367 165L363 166L360 167L362 171L359 173L354 172L352 169L353 168L350 169L348 167L348 162L344 163L342 159L335 155L332 155L341 150L342 144L339 140L329 141L329 143L327 142L325 143L325 145L324 142L322 142L323 144L320 145L320 140L312 132L314 129L307 111M329 303L327 297L327 283L323 277L323 275L326 275L322 271L321 266L318 262L313 259M359 246L357 252L354 249L351 250L353 256L351 258L346 259L343 256L341 258L337 252L336 257L327 252L320 238L316 238L315 236L312 237L313 238L309 242L309 245L313 247L310 251L311 252L309 256L313 259M318 317L319 314L321 318L324 315L323 306L325 306L326 309L328 305L327 304L329 303M399 323L398 318L391 321L388 318L390 316L387 314L388 311L383 310L383 314L378 317L378 322L374 327L372 326L371 331L374 338L370 342L368 340L363 344L358 341L357 342L358 341L355 338L356 335L354 335L355 334L350 328L348 322L346 320L343 321L343 323L341 321L339 317L341 315L336 310L336 308L334 308L332 316L329 313L329 303M401 254L399 258L393 258L391 256L390 257L387 254L389 253L389 249L386 246L386 244L378 242L377 243L371 235L368 238L366 238L366 240L363 239L367 246L364 247L363 250L360 251L359 250L361 247L359 246M426 185L423 184L422 181L413 179L418 169L416 163L414 163L411 164L406 171L406 179L404 181L404 186L388 191M388 191L392 191L391 194L398 197L398 203L401 207L399 211L400 213L411 222L413 220L412 215L415 216L418 211L417 208L412 207L413 206L411 203L413 203L415 195L421 196M399 323L398 327L397 326L395 328L391 328L389 326L385 328L385 326L380 330L380 332L382 332L381 336L383 338L389 336L392 339L390 341L391 342L389 344L390 345L388 349L390 351L391 350L390 351L394 355L393 354L391 356L392 357L390 360M390 360L392 366L392 364L396 364L399 369L408 368L409 375L404 376L402 380M447 344L445 348L440 348L442 348L441 351L439 349L437 353L434 350L431 353L431 355L428 356L424 354L421 350L419 350L419 354L410 357L407 362L398 357L393 362L390 360M411 312L407 309L403 313L403 315L411 319L410 322L399 323M421 196L422 199L427 200L431 204L432 203L437 206L437 220L435 222L428 221L426 223L428 225L426 227L414 224L414 228L411 231L415 235L413 235L414 237L412 239L414 244L412 246L412 244L408 244L404 248L407 251L406 254L401 254M436 264L428 264L423 259L421 261L419 259L420 258L416 256L412 258L405 255L403 257L401 254M444 313L442 317L439 316L439 314L436 313L436 310L434 310L433 305L429 306L424 303L423 308L421 309L421 307L419 307L415 313L412 308L413 311L411 312M411 312L409 307L404 306L404 302L400 302L401 301L399 299L404 294L404 292L402 291L405 288L407 288L409 290L414 289L416 293L419 292L424 285L423 283L427 281L428 282L430 280L430 276L432 275L432 273L436 271L436 269L433 268L433 266L435 266L434 264L436 264M421 196L423 187L426 185M465 163L466 160L464 160L460 164L456 162L454 162L455 163L453 165L451 164L452 167L450 167L449 170L442 176L442 183L441 184L439 182L439 188L431 188L428 185L426 185M436 264L439 265L444 270L448 270M448 270L450 270L449 271L454 274L454 282L451 281L446 286L443 286L443 284L441 284L439 286L438 285L434 287L436 289L436 295L434 295L436 297L436 295L438 295L441 301L440 302L441 301L444 304M444 304L444 313M497 305L494 304L495 299L493 296L488 300L486 300L486 296L484 296L484 298L483 297L479 299L475 295L468 294L463 291L458 292L460 296L459 297L451 296L447 298L444 304M447 344L447 342L444 341L446 337L445 336L447 334L446 333L448 332L446 330L442 330L440 332L439 331L447 324L445 322L446 315L444 315L444 313M476 360L472 360L470 362L468 355L464 358L463 357L470 346L466 345L467 342L465 340L459 340L459 342L456 345L453 344L453 342L450 345L451 346L447 344M464 249L461 252L459 250L456 251L448 249L446 251L450 252L450 254L452 254L455 257L453 259L448 258L448 270M450 401L449 401M450 401L452 396L457 395L456 392L461 391L461 387L468 384L468 376L474 370L476 366L474 362L476 360M451 417L453 417M454 417L457 416M457 231L455 230L455 226L460 217L458 213L457 198L462 189L458 183L458 180L463 175L464 168L466 167L467 164L465 163M457 231L457 235L460 238L459 241L462 242L464 249M457 231L470 228L474 224L476 224L476 222L483 223L491 219L494 216L493 215L495 211L495 206M458 416L459 415M514 274L513 275L512 272L508 274L504 272L504 269L501 270L500 268L498 270L498 268L495 267L495 261L491 263L489 261L478 262L475 259L474 260L470 258L464 249M464 250L464 250M500 143L499 146L494 147L492 149L490 149L490 147L487 148L485 151L481 149L476 154L473 160L470 159L465 163M476 360L477 355L483 355L483 357L486 358L487 354L485 354L488 351L492 353L497 352M515 209L511 209L509 211L507 209L495 206M495 206L492 202L496 198L495 195L500 188L495 180L493 180L493 176L496 172L495 169L498 166L500 168L505 160L502 156L500 156L501 155L497 153L504 149L501 147L500 143M522 295L520 297L515 295L513 298L512 297L509 300L508 299L508 301L502 301L497 305M497 352L498 345L499 343L501 343L498 342L499 337L496 336L497 327L494 328L493 325L496 319L498 319L498 317L501 314L499 312L500 309L497 305M497 352L498 351L498 354L504 352L506 354L506 356L502 358L503 359L501 361L503 363L512 360L519 363L518 359L520 358M558 134L548 134L545 128L545 126L547 126L547 122L546 123L543 120L544 117L541 114L537 114L537 116L533 116L531 118L530 124L527 125L525 123L521 127L520 124L516 126L513 129L514 130L508 130L508 122L504 121L504 123L500 127L501 130L497 132L498 135L496 137L500 143M523 231L523 233L526 236L527 235L528 240L523 243L521 239L518 238L516 240L517 245L513 247L513 251L508 252L513 259L517 261L519 259L520 260L520 268L518 270L517 269L514 272L514 274M522 295L522 291L518 284L521 280L514 274M542 179L541 182L539 182L537 185L529 186L526 190L525 189L523 191L524 192L522 192L519 195L520 196L513 203L515 209M523 231L515 231L515 229L513 227L512 228L511 225L507 225L509 221L511 219L512 220L514 216L517 215L522 210L514 214L513 212L515 209M520 358L519 355L521 353L521 349L523 347L522 346L524 346L526 344L525 341L527 339L528 340L527 333L534 329L534 325L532 325L532 323L533 324L538 319L541 322L541 320L547 318L548 315M534 375L531 368L531 364L529 362L530 361L527 362L525 360L526 359L523 360L524 359L520 358M546 301L544 299L540 299L535 294L533 296L534 297L530 299L528 297L531 294L529 292L524 296L522 295M525 230L523 231M558 225L554 225L553 228L551 230L550 229L547 234L545 234L545 230L541 230L541 232L538 233L536 231L534 233L531 226L526 227L525 230M562 278L558 276L553 277L552 276L554 273L550 269L549 270L548 267L548 265L551 264L552 261L550 259L551 258L556 260L557 255L554 253L552 257L548 257L546 255L546 251L543 250L546 243L540 243L540 239L534 238L530 233L528 233L525 230M537 150L535 148L537 144L532 143L529 140L529 138L525 140L526 142L518 146L520 151L514 154L516 156L515 159L519 161L524 160L524 162L526 162L525 161L527 159L530 159M539 174L536 175L529 172L529 168L531 168L530 159M531 158L530 159M531 158L534 159L535 152M535 152L529 154L532 157L531 158M534 375L535 376M537 150L535 152M536 377L537 378M537 150L541 152L541 154L539 154L538 157L540 161L543 160L542 163L544 165M546 301L554 294L554 288L560 288L558 286L562 282L562 278M546 301L544 305L548 309L548 315M572 330L568 326L564 328L561 323L558 326L554 326L554 322L552 320L553 317L551 315L548 315M558 134L560 131L558 129L558 119L561 118L565 120L566 126L568 128L568 126L574 120L578 120L582 116L585 117L590 112L593 113L594 110L596 112L603 111L602 110L604 108L608 107L608 102M565 154L563 152L562 147L557 145L557 143L556 144L553 141L558 134M577 279L574 280L574 282L572 283L570 281L571 280L568 281L564 277L562 278M574 331L575 332M576 177L579 177M589 271L583 270L581 268L579 270L582 272L579 275L580 276L576 278L577 279M581 284L577 279M582 284L584 284M605 44L604 47L603 46L602 48L600 48L598 44L599 43L596 42L594 38L614 18L616 20L615 21L617 25L618 24L618 16L621 7L626 6L626 -10L628 -10L627 -11L629 -15L633 -18L632 -21L635 -24L635 -26L629 -35L624 -38L624 -36L620 -32L617 -33L617 -31L611 -31L609 -33L604 -30L601 -32L600 -31L596 -45L598 -49L596 -49L591 -54L588 -49L580 -56L585 -60L587 -64L583 -69M584 284L585 284M587 283L588 283M589 282L591 282M593 281L595 281M597 281L598 280M695 100L690 101L687 98L685 98L684 93L680 95L679 92L673 96L672 95L671 98L667 100L663 90L663 86L661 84L660 87L658 87L659 89L655 91L651 85L652 84L650 82L646 82L647 77L645 74L641 72L635 74L631 71L630 68L628 70L624 70L624 68L618 70L612 64L613 63L611 61L611 55L605 57L602 56M602 56L600 51L608 48L608 46L607 45L607 47L605 44M602 56L601 59L598 59L598 65L596 65L593 61L592 64L588 60L586 60L587 61L585 64L589 66L592 73L590 75L590 83L593 89L595 89L601 84L604 88L604 92L607 98L604 99L604 101L608 102M605 44L605 44M605 44L605 44M605 44L605 44M608 102L609 101L612 104L613 103L617 110L621 106L622 107L621 108L626 118L625 119L629 121L627 123L627 129L629 129L629 133L632 136L630 140L631 141M406 220L407 219L406 220M447 335L447 335M486 296L486 296"/><path class="leaflet-interactive" stroke="#3388ff" stroke-opacity="0" stroke-width="3" stroke-linecap="round" stroke-linejoin="round" fill="#eee" fill-opacity="0.5" fill-rule="evenodd" d="M536 145L538 144L531 143L529 138L526 139L526 141L518 146L520 149L514 154L516 156L515 159L519 161L524 160L525 162L528 159L529 160L532 157L529 154L534 153L537 150L535 148L536 145z"/><path class="leaflet-interactive" stroke="#3388ff" stroke-opacity="0" stroke-width="3" stroke-linecap="round" stroke-linejoin="round" fill="#eee" fill-opacity="0.5" fill-rule="evenodd" d="M541 163L543 161L540 161L538 157L538 155L541 154L541 152L538 150L534 153L534 159L530 159L531 168L529 168L529 172L536 175L539 174L541 172L540 171L542 171L542 167L544 165L542 163L538 163L540 162zM541 163L542 162L541 163z"/><path class="leaflet-interactive" stroke="#3388ff" stroke-opacity="0" stroke-width="3" stroke-linecap="round" stroke-linejoin="round" fill="#eee" fill-opacity="0.5" fill-rule="evenodd" d="M538 144L535 145L535 149L541 153L538 154L540 159L539 160L543 160L542 163L549 170L551 166L554 167L559 162L558 161L560 156L565 153L562 150L561 146L558 146L557 143L556 144L553 141L558 134L548 134L545 128L546 126L547 127L547 123L545 123L544 118L540 114L532 116L530 124L527 125L525 123L521 127L519 124L513 129L514 130L508 130L508 122L504 121L504 123L500 127L501 130L497 131L497 137L501 147L504 148L498 153L499 155L503 156L504 162L500 168L497 167L496 173L493 175L493 179L497 182L500 188L495 195L496 199L492 201L493 205L499 208L503 208L505 210L508 209L508 211L511 208L513 210L515 209L513 204L519 198L518 197L521 192L523 192L524 189L526 191L530 185L537 185L541 181L543 178L541 178L538 174L536 175L529 172L529 168L531 168L530 159L528 159L525 162L523 160L518 161L516 159L515 160L516 156L514 154L520 150L518 145L526 142L526 139L529 138L529 140L532 143L538 144zM535 152L529 154L532 157L532 159L534 159L534 153zM541 163L538 163L541 163zM553 166L553 167z"/><path class="leaflet-interactive" stroke="#3388ff" stroke-opacity="0" stroke-width="3" stroke-linecap="round" stroke-linejoin="round" fill="#eee" fill-opacity="0.5" fill-rule="evenodd" d="M457 231L470 228L473 225L476 225L477 222L484 223L494 216L493 215L495 211L495 205L493 205L492 202L495 199L495 196L500 188L496 181L493 180L493 176L496 172L495 169L499 166L499 168L501 167L505 160L497 153L504 149L501 147L499 143L497 147L496 146L492 149L488 148L485 151L481 149L479 150L473 160L470 159L465 163L466 166L463 175L458 180L462 188L460 194L457 197L459 218L455 227L456 231z"/><path class="leaflet-interactive" stroke="#3388ff" stroke-opacity="0" stroke-width="3" stroke-linecap="round" stroke-linejoin="round" fill="#eee" fill-opacity="0.5" fill-rule="evenodd" d="M307 111L314 129L312 131L319 140L320 145L323 144L324 142L325 145L325 143L327 142L329 144L329 142L339 140L342 144L341 150L333 155L342 158L344 163L347 162L349 167L348 168L353 168L352 169L355 172L359 173L362 170L360 167L366 165L372 167L378 163L385 162L387 169L383 174L378 177L379 181L377 182L378 185L385 191L403 187L405 185L404 181L406 179L405 176L408 167L414 163L416 163L418 168L413 178L414 180L421 181L424 184L430 186L430 188L439 188L439 182L441 184L442 183L440 180L452 166L451 165L455 164L455 162L457 164L461 164L462 161L464 160L466 160L465 163L468 162L469 159L473 160L475 158L477 152L480 149L485 151L487 148L491 149L499 145L499 141L496 137L498 135L497 132L501 131L500 127L504 123L504 121L507 122L509 125L508 130L514 130L513 129L519 124L522 127L525 123L527 125L530 124L531 118L533 116L541 114L544 117L543 120L545 121L545 123L547 123L547 127L545 127L547 132L552 134L558 134L560 132L558 129L558 121L560 118L562 120L565 120L564 121L567 128L576 119L579 120L582 116L585 117L590 112L593 113L593 111L597 111L599 113L603 110L603 108L608 107L608 102L604 100L606 100L606 96L602 84L597 88L592 88L592 84L590 82L590 74L592 72L589 66L585 64L587 62L586 60L588 60L591 63L594 62L597 65L599 62L598 59L602 58L600 51L608 48L606 44L604 44L604 47L603 46L602 48L600 48L598 44L599 43L594 39L595 35L603 30L615 18L617 25L618 24L618 18L621 7L626 6L625 -7L627 -9L626 -10L628 -10L627 -11L629 -15L633 -18L632 -21L635 -24L635 -28L633 -28L629 -35L624 -38L624 -36L620 -32L618 -33L616 -31L611 -31L609 -33L604 -30L601 -32L599 -34L596 -45L598 -49L591 -53L587 -49L580 -56L585 -60L587 -64L586 -66L583 -69L577 -68L567 -58L568 -55L572 -56L574 -54L573 -51L575 -49L575 -44L567 -37L565 -33L566 -32L561 -25L561 -21L557 -15L559 -11L555 -7L551 -7L541 1L529 -5L521 12L522 13L519 17L519 22L515 24L516 28L520 32L524 29L530 29L537 33L542 26L549 27L564 41L566 47L563 50L557 50L554 47L551 49L548 48L541 52L538 50L536 54L527 55L524 63L517 69L505 70L502 75L494 81L485 79L480 75L475 75L469 85L470 90L474 93L475 97L464 103L457 112L444 117L424 116L404 124L398 127L396 130L390 129L390 125L383 127L370 121L363 120L357 115L349 113L333 115L314 113L308 111z"/><path class="leaflet-interactive" stroke="#3388ff" stroke-opacity="0" stroke-width="3" stroke-linecap="round" stroke-linejoin="round" fill="#eee" fill-opacity="0.5" fill-rule="evenodd" d="M607 157L614 157L614 155L622 146L623 147L631 141L630 140L632 135L627 128L627 124L629 121L625 119L626 118L624 116L622 106L619 108L619 110L617 110L616 106L612 104L610 100L608 102L607 108L603 108L601 112L594 111L594 113L588 113L586 117L583 116L578 120L577 119L573 121L568 126L568 128L565 124L565 120L561 118L558 120L558 129L560 130L560 132L558 133L554 141L556 144L557 143L558 146L561 145L562 149L566 154L572 150L576 143L578 143L577 142L580 141L587 140L589 144L591 144L592 146L590 148L591 149L588 150L588 153L580 161L583 164L586 163L584 165L585 166L579 170L579 172L584 171L585 168L588 169L587 168L589 168L591 166L590 165L594 162L606 157zM596 164L596 164zM593 166L594 165L593 166zM597 165L597 165zM597 168L598 168zM601 160L601 161zM595 165L595 165zM575 147L576 146L575 147zM601 162L601 162zM602 168L603 167L602 168zM609 157L609 157z"/><path class="leaflet-interactive" stroke="#3388ff" stroke-opacity="0" stroke-width="3" stroke-linecap="round" stroke-linejoin="round" fill="#eee" fill-opacity="0.5" fill-rule="evenodd" d="M676 117L678 114L678 110L680 108L682 108L681 109L683 113L685 115L686 114L687 117L687 113L685 113L686 111L693 109L695 101L690 101L687 98L685 98L684 93L680 95L679 92L673 96L672 95L671 98L667 100L666 95L662 89L662 85L660 85L658 88L659 89L655 91L651 85L652 84L650 82L646 82L646 74L641 72L638 74L633 73L630 68L628 70L624 70L624 68L618 70L612 64L613 63L611 61L611 55L603 56L598 59L598 65L596 65L594 62L591 63L588 60L586 60L587 61L585 64L589 66L592 73L590 75L590 83L592 84L592 88L595 89L602 84L607 98L604 99L605 101L608 102L610 100L610 102L617 107L616 110L619 110L619 108L621 106L622 107L621 108L623 114L627 120L626 121L628 121L627 128L632 135L630 140L631 141L633 141L639 135L641 130L645 126L648 130L647 131L648 130L650 132L651 131L658 133L661 131L658 124L668 123L673 117L675 117z"/><path class="leaflet-interactive" stroke="#3388ff" stroke-opacity="0" stroke-width="3" stroke-linecap="round" stroke-linejoin="round" fill="#eee" fill-opacity="0.5" fill-rule="evenodd" d="M607 57L610 55L612 57L612 63L618 70L622 68L624 68L624 70L628 70L630 68L633 73L638 74L641 72L646 74L646 82L652 83L651 84L655 91L657 91L662 84L662 89L666 94L667 100L669 100L672 95L673 96L679 92L680 95L684 92L684 96L687 99L690 101L695 101L695 92L693 81L691 79L693 77L697 77L699 73L701 73L701 71L715 76L716 69L720 65L723 59L722 58L725 55L724 52L726 49L728 41L727 40L734 32L732 27L733 22L738 20L728 20L720 25L716 25L712 28L711 27L709 32L691 32L688 26L689 18L687 19L686 16L688 12L683 12L677 6L677 4L675 4L675 2L670 3L664 -1L656 0L652 -5L653 -12L650 -14L649 -22L645 -27L646 -31L644 -31L645 -32L640 -43L640 -49L638 -50L639 -51L636 -55L634 -55L636 -58L634 -58L632 -61L631 -60L632 -62L629 -65L625 -67L622 -65L617 -67L615 -70L613 -69L607 -73L598 -71L591 -72L584 -69L587 -64L580 -55L587 -49L591 -53L598 -49L596 -45L599 -33L604 -30L609 -33L611 -31L617 -31L617 -33L619 -32L623 -34L622 -35L624 -35L625 -38L630 -34L633 -28L635 -28L635 -24L632 -21L633 -18L626 -9L626 6L621 7L618 17L618 25L615 21L616 20L613 19L602 31L596 34L594 38L598 43L599 42L598 44L600 48L602 48L605 45L604 44L606 44L607 47L607 45L608 46L607 49L601 51L602 55L607 57z"/><path class="leaflet-interactive" stroke="#3388ff" stroke-opacity="0" stroke-width="3" stroke-linecap="round" stroke-linejoin="round" fill="#eee" fill-opacity="0.5" fill-rule="evenodd" d="M577 279L578 282L582 284L588 282L589 280L582 273L579 274L579 278L576 278zM589 271L583 270L581 268L579 270L587 274L589 273zM587 275L584 274L587 276zM587 275L590 276L587 275zM585 274L584 273zM588 277L589 277zM588 277L588 277z"/><path class="leaflet-interactive" stroke="#3388ff" stroke-opacity="0" stroke-width="3" stroke-linecap="round" stroke-linejoin="round" fill="#eee" fill-opacity="0.5" fill-rule="evenodd" d="M536 231L534 233L531 226L525 227L525 229L530 234L532 234L532 237L537 239L538 238L541 241L541 243L545 243L543 249L544 251L546 250L546 254L549 257L552 257L554 253L558 258L556 260L554 258L550 258L552 262L548 265L548 267L554 272L552 275L553 277L565 277L568 281L571 280L570 281L572 283L577 279L576 278L578 278L578 276L582 272L579 270L581 268L583 270L589 271L588 268L583 264L583 261L577 257L577 253L570 235L560 230L561 229L557 227L557 224L554 225L553 228L551 230L550 229L547 234L544 231L545 230L541 230L541 232L538 233L536 231z"/><path class="leaflet-interactive" stroke="#3388ff" stroke-opacity="0" stroke-width="3" stroke-linecap="round" stroke-linejoin="round" fill="#eee" fill-opacity="0.5" fill-rule="evenodd" d="M549 315L553 317L552 320L554 322L554 326L558 326L562 323L564 328L568 326L572 330L574 327L574 323L580 320L578 320L578 318L579 317L579 319L584 315L585 316L584 311L587 308L585 305L589 305L588 297L591 294L585 292L582 288L580 288L578 285L581 284L577 279L574 280L574 282L572 283L570 281L571 280L568 281L565 277L563 277L561 281L562 282L558 286L560 288L554 288L554 294L544 303L549 315zM591 293L593 293L589 290L588 291L590 293zM592 290L591 291zM592 297L592 297zM594 283L595 284L594 283zM591 289L592 290L591 288zM593 290L593 289zM589 304L590 303zM593 294L594 295L593 294zM594 288L593 287zM587 309L588 308zM592 295L593 295zM587 305L587 305zM580 324L580 324zM588 283L590 285L589 282zM588 313L588 312zM591 297L590 296L591 297zM594 294L594 294zM596 284L595 284zM588 313L588 313zM590 291L589 291zM594 293L593 293zM587 293L588 292L587 293zM578 326L578 326zM589 304L589 303zM590 296L589 297zM588 291L589 292zM589 289L588 289zM591 293L591 293zM592 297L592 296zM579 322L579 322zM598 291L598 291zM592 289L593 289zM592 295L593 294zM598 284L598 283zM579 320L578 320zM580 319L580 319zM594 293L594 293zM599 284L598 283zM591 293L592 293zM589 293L590 293zM578 319L579 319zM594 294L594 294zM591 293L591 293z"/><path class="leaflet-interactive" stroke="#3388ff" stroke-opacity="0" stroke-width="3" stroke-linecap="round" stroke-linejoin="round" fill="#eee" fill-opacity="0.5" fill-rule="evenodd" d="M528 239L528 241L527 240L524 243L522 243L521 240L517 238L517 245L513 247L513 251L508 252L513 259L516 261L519 259L520 261L520 268L517 269L514 272L514 274L516 277L522 280L518 283L524 296L527 292L529 292L531 294L528 297L530 299L535 294L540 299L544 298L545 301L552 296L554 293L554 289L559 288L558 285L562 281L562 279L559 276L553 276L553 271L551 271L552 270L550 270L548 267L548 265L551 264L551 258L554 258L555 260L557 260L558 258L555 253L553 253L552 256L548 257L546 255L546 251L543 250L545 242L540 243L541 241L538 238L534 238L530 233L528 233L525 230L523 234L525 236L527 235L528 239zM553 273L554 273zM529 297L529 297zM515 260L515 260z"/><path class="leaflet-interactive" stroke="#3388ff" stroke-opacity="0" stroke-width="3" stroke-linecap="round" stroke-linejoin="round" fill="#eee" fill-opacity="0.5" fill-rule="evenodd" d="M555 357L554 354L556 354L556 356L556 354L559 355L559 353L557 352L558 351L562 351L562 353L565 350L564 349L562 351L560 349L563 344L562 343L565 340L564 337L562 337L563 335L564 336L567 334L566 337L564 338L568 335L567 334L571 330L571 328L569 326L565 328L561 323L559 326L553 325L553 317L549 315L545 319L541 321L539 321L539 319L536 320L536 322L532 324L534 328L531 332L527 334L528 340L527 339L525 341L526 342L522 347L519 356L522 359L526 359L525 360L527 362L530 361L529 362L531 364L532 371L536 375L545 367L545 363L550 363L553 360L551 359L555 358zM548 363L547 364L549 363zM560 355L561 354L560 355zM562 349L562 349zM566 342L566 342zM546 365L546 364zM565 336L566 336zM546 363L544 364L546 364zM566 343L565 342zM562 343L563 342L562 343zM567 338L567 338zM562 349L563 349zM564 337L564 336zM568 337L568 337zM570 333L570 332zM568 334L568 334zM563 336L562 336z"/><path class="leaflet-interactive" stroke="#3388ff" stroke-opacity="0" stroke-width="3" stroke-linecap="round" stroke-linejoin="round" fill="#eee" fill-opacity="0.5" fill-rule="evenodd" d="M546 301L544 299L540 299L535 294L530 299L528 297L531 294L527 292L527 294L524 296L523 295L520 297L515 295L513 298L512 297L509 300L508 299L508 301L499 303L497 305L500 308L499 311L501 315L495 320L493 325L495 328L497 327L495 331L496 330L497 332L497 337L499 337L498 342L501 343L498 344L497 352L499 352L499 354L503 352L507 354L501 361L503 363L512 360L519 363L518 359L520 359L519 355L521 353L521 349L523 347L522 346L525 345L525 342L528 339L528 333L534 329L534 326L532 324L535 323L536 320L539 319L539 321L541 321L543 319L548 318L548 308L544 305L544 303L546 302z"/><path class="leaflet-interactive" stroke="#3388ff" stroke-opacity="0" stroke-width="3" stroke-linecap="round" stroke-linejoin="round" fill="#eee" fill-opacity="0.5" fill-rule="evenodd" d="M525 230L525 227L531 226L535 233L537 231L537 233L539 233L542 230L544 230L546 232L545 233L548 234L548 231L550 229L551 230L554 225L559 224L563 218L562 217L564 217L570 211L568 211L569 208L570 211L574 210L574 206L576 206L578 204L577 203L583 200L584 201L588 198L591 198L590 199L593 200L596 197L594 197L597 192L592 191L590 189L588 191L585 191L580 189L580 187L576 185L569 187L569 189L566 192L564 192L565 193L563 195L559 195L555 193L554 190L555 188L558 187L558 185L557 186L554 181L549 182L542 179L537 185L529 186L526 190L525 189L523 191L524 192L522 192L519 195L519 198L513 203L515 208L513 214L514 215L515 213L522 210L521 212L515 215L507 225L510 225L514 228L515 231L525 231zM575 184L575 184zM574 183L575 183zM578 206L577 206zM575 181L575 180zM577 178L577 178zM568 215L568 214zM573 184L573 183zM575 179L576 178zM583 189L583 189zM583 189L583 189zM583 189L583 189zM515 213L515 213z"/><path class="leaflet-interactive" stroke="#3388ff" stroke-opacity="0" stroke-width="3" stroke-linecap="round" stroke-linejoin="round" fill="#eee" fill-opacity="0.5" fill-rule="evenodd" d="M483 262L489 261L492 263L494 261L496 264L496 268L498 268L498 270L500 268L508 274L512 272L513 275L514 272L520 268L520 259L517 261L512 259L512 255L509 254L508 251L510 252L514 249L513 246L516 245L516 240L518 238L521 240L522 243L524 243L527 240L528 241L528 239L527 236L523 233L523 231L515 231L511 225L508 225L508 223L511 219L512 220L522 211L521 210L514 214L513 212L515 211L515 209L514 210L511 208L508 211L508 209L505 210L503 208L495 206L493 214L494 217L493 216L491 219L489 219L488 221L487 220L484 223L476 222L476 224L471 226L470 228L466 228L463 229L462 231L461 230L457 232L457 235L460 238L459 241L464 245L464 251L466 251L467 255L479 262L483 261zM495 263L495 263z"/><path class="leaflet-interactive" stroke="#3388ff" stroke-opacity="0" stroke-width="3" stroke-linecap="round" stroke-linejoin="round" fill="#eee" fill-opacity="0.5" fill-rule="evenodd" d="M464 251L464 249L461 252L459 249L458 251L451 249L446 251L450 252L450 254L452 254L455 258L449 258L447 261L448 270L455 277L453 282L452 281L445 286L438 285L434 287L436 289L435 295L436 297L436 295L438 296L438 298L440 298L440 302L441 301L443 304L446 301L446 299L451 296L455 296L457 298L460 296L458 292L461 291L472 294L479 299L484 298L484 296L486 296L486 300L488 300L493 295L495 299L495 305L501 303L502 301L507 301L509 300L508 299L509 300L516 295L520 297L522 295L522 291L518 284L521 280L519 278L516 278L511 272L506 273L504 269L501 270L500 268L498 270L498 268L496 268L495 266L495 261L492 263L489 261L480 262L470 258L465 250zM442 285L442 285zM464 250L464 251zM483 262L484 262zM486 296L486 296z"/><path class="leaflet-interactive" stroke="#3388ff" stroke-opacity="0" stroke-width="3" stroke-linecap="round" stroke-linejoin="round" fill="#eee" fill-opacity="0.5" fill-rule="evenodd" d="M476 360L477 355L483 355L483 357L486 358L486 353L489 351L491 351L492 353L496 353L498 350L498 345L499 343L501 343L498 342L499 338L496 336L497 328L493 326L495 320L498 319L498 317L501 314L499 312L500 309L497 305L494 304L495 298L493 296L488 300L486 300L486 296L484 296L484 298L479 299L473 294L468 294L461 291L458 292L460 296L459 297L457 298L455 296L451 296L446 299L444 304L445 310L443 311L445 311L445 323L447 323L439 331L447 331L446 333L448 335L445 336L446 339L444 341L446 341L446 344L450 346L452 342L454 342L453 344L456 345L460 340L467 341L466 345L469 346L467 352L463 357L464 358L467 355L469 357L470 362L472 360L475 360zM447 335L447 335z"/><path class="leaflet-interactive" stroke="#3388ff" stroke-opacity="0" stroke-width="3" stroke-linecap="round" stroke-linejoin="round" fill="#eee" fill-opacity="0.5" fill-rule="evenodd" d="M493 392L495 386L494 385L497 389L501 387L503 387L503 389L505 388L504 387L506 385L508 388L511 384L515 386L517 384L519 385L526 383L527 380L530 379L531 375L532 376L534 374L531 369L532 367L529 363L530 361L527 362L525 360L526 359L524 360L519 358L518 363L515 360L513 360L508 361L508 363L505 362L503 364L500 361L503 359L504 356L506 356L504 352L498 354L499 352L492 353L488 351L487 353L485 353L487 355L487 358L485 358L482 355L478 355L474 362L476 364L476 366L474 367L475 370L471 372L471 374L469 374L469 382L464 387L463 386L461 388L462 391L458 393L457 392L457 396L454 395L451 399L450 398L451 401L449 409L453 416L457 416L459 414L458 410L457 411L455 407L457 404L464 401L476 399L476 397L479 398L483 397L484 395L487 396L488 393L489 396L493 392zM532 377L534 377L533 376zM485 397L484 400L485 398zM481 399L483 399L481 399zM501 394L501 394zM457 404L459 406L460 404L457 404zM480 398L481 398zM458 406L457 405L455 407L458 408L459 406zM495 395L495 394zM495 395L495 395zM488 396L488 396zM496 389L496 389zM500 394L500 394zM500 395L499 394zM530 409L529 410L531 410L531 412L530 409zM487 396L487 396zM457 410L457 410zM460 407L460 408zM459 415L459 414zM520 405L521 406L520 405zM520 407L520 407zM519 385L519 385zM519 385L519 385z"/><path class="leaflet-interactive" stroke="#3388ff" stroke-opacity="0" stroke-width="3" stroke-linecap="round" stroke-linejoin="round" fill="#eee" fill-opacity="0.5" fill-rule="evenodd" d="M447 344L444 348L440 348L442 348L441 351L439 349L437 353L434 350L430 355L427 356L426 353L425 354L421 350L419 350L419 353L417 355L410 357L407 362L399 357L393 362L390 360L390 363L392 365L397 364L399 369L408 368L409 375L405 375L403 377L404 378L402 378L402 380L406 383L409 382L411 384L417 384L413 389L415 391L415 395L416 394L423 399L424 398L434 400L437 398L442 399L443 402L450 401L452 396L456 396L456 392L460 392L460 388L461 389L461 387L465 386L469 382L468 377L469 374L471 374L471 372L475 370L474 367L476 365L476 360L472 360L470 362L468 355L464 358L463 357L468 351L467 348L469 347L466 345L467 342L464 340L460 340L456 345L453 344L453 342L450 344L451 346L447 344zM397 358L397 358zM442 406L442 406z"/><path class="leaflet-interactive" stroke="#3388ff" stroke-opacity="0" stroke-width="3" stroke-linecap="round" stroke-linejoin="round" fill="#eee" fill-opacity="0.5" fill-rule="evenodd" d="M454 418L449 418L443 421L437 427L437 437L448 441L454 438L456 435L458 435L460 427L464 423L464 418L454 418zM469 454L470 453L469 454zM540 476L542 477L540 476zM472 464L473 464zM471 464L470 465L472 463zM475 463L475 462zM472 461L473 461zM478 455L478 455zM481 467L482 466L480 466zM480 463L481 463zM479 456L479 455zM470 461L470 461zM470 461L471 461zM472 460L472 460zM481 461L482 460L481 461zM473 466L473 466zM506 465L506 464zM500 466L501 466zM503 471L504 471zM499 466L500 466zM529 462L529 462zM487 425L486 425zM503 466L503 466zM496 429L496 428zM514 491L514 490zM496 473L497 473zM478 458L478 457zM478 470L478 470zM497 468L498 468zM509 466L508 467zM483 462L483 461zM466 420L466 420zM483 463L483 462zM505 471L505 471z"/><path class="leaflet-interactive" stroke="#3388ff" stroke-opacity="0" stroke-width="3" stroke-linecap="round" stroke-linejoin="round" fill="#eee" fill-opacity="0.5" fill-rule="evenodd" d="M411 312L413 312L412 309L414 311L413 313L415 313L417 311L416 309L420 307L423 308L423 304L427 303L428 306L432 305L435 311L437 311L436 314L437 315L438 312L438 316L441 317L445 311L443 311L445 309L445 306L442 303L443 302L440 301L439 297L438 298L438 296L435 295L436 290L434 287L442 284L443 286L445 286L451 281L453 281L455 277L454 274L449 272L449 270L444 270L442 267L434 264L435 265L433 267L436 270L430 277L430 281L423 283L424 284L420 292L415 293L413 289L410 290L405 288L402 291L404 295L402 295L402 297L399 298L401 301L400 302L404 302L404 306L410 308L411 312zM442 285L442 285zM402 291L402 291zM442 285L442 285zM419 292L419 292z"/><path class="leaflet-interactive" stroke="#3388ff" stroke-opacity="0" stroke-width="3" stroke-linecap="round" stroke-linejoin="round" fill="#eee" fill-opacity="0.5" fill-rule="evenodd" d="M352 329L352 331L355 334L354 335L356 335L355 338L357 342L358 341L363 344L368 340L370 342L374 338L371 331L372 328L379 321L378 318L383 315L383 310L388 311L387 314L390 316L388 318L391 321L398 318L399 323L410 322L411 321L409 317L407 318L403 314L403 312L406 311L407 309L411 313L411 311L409 307L404 306L404 302L400 302L401 301L399 299L404 294L404 292L402 291L405 287L409 290L414 289L415 293L420 292L424 285L423 283L427 281L428 282L430 280L430 276L436 270L433 267L435 265L434 264L436 264L428 264L426 261L421 261L419 259L420 258L416 256L412 258L405 255L403 257L400 254L401 256L399 258L390 257L387 254L389 254L389 248L387 248L385 244L378 242L377 243L372 235L363 240L367 245L367 247L365 247L364 250L363 249L361 251L359 249L361 247L359 245L359 249L357 251L355 251L354 249L351 250L353 257L347 257L345 259L343 256L340 258L340 254L338 254L337 252L335 256L332 254L330 255L330 253L325 250L321 239L316 238L315 236L312 237L313 239L309 241L309 245L313 247L310 251L311 252L309 256L319 262L323 272L326 274L325 276L323 276L327 283L327 297L330 315L332 317L332 313L335 308L340 313L339 314L341 315L339 317L343 323L343 321L346 320L350 328L352 329zM410 290L410 290zM418 292L418 292zM402 290L402 290z"/><path class="leaflet-interactive" stroke="#3388ff" stroke-opacity="0" stroke-width="3" stroke-linecap="round" stroke-linejoin="round" fill="#eee" fill-opacity="0.5" fill-rule="evenodd" d="M444 313L441 317L438 316L439 314L436 313L437 312L436 310L434 310L432 305L429 306L427 305L427 303L423 303L423 307L421 309L420 307L416 309L416 313L413 313L414 310L412 308L413 311L411 313L407 309L403 312L403 314L407 318L410 318L410 322L401 322L399 323L398 327L397 326L395 328L391 328L390 326L386 328L384 327L380 331L382 333L381 337L384 338L386 336L389 336L392 339L390 341L391 342L388 349L390 351L391 350L390 352L394 355L393 354L390 360L392 362L396 360L398 357L401 358L402 360L407 361L409 360L410 357L419 354L418 353L421 350L425 354L426 353L427 356L430 355L432 353L431 352L433 352L433 350L437 353L439 349L441 351L442 348L440 348L444 348L447 344L446 341L444 341L446 339L445 336L447 334L447 330L442 330L440 332L439 331L443 326L447 324L445 322L446 315L444 315L444 313zM447 334L446 334zM447 335L447 335z"/><path class="leaflet-interactive" stroke="#3388ff" stroke-opacity="0" stroke-width="3" stroke-linecap="round" stroke-linejoin="round" fill="#eee" fill-opacity="0.5" fill-rule="evenodd" d="M399 323L398 318L391 321L388 319L389 316L387 312L389 311L383 311L383 314L378 317L378 322L374 327L372 327L371 331L374 338L370 342L368 341L369 340L360 344L358 341L357 342L355 338L356 335L354 335L355 334L350 328L348 322L346 320L343 321L343 323L341 321L339 318L339 316L341 316L339 314L340 313L335 308L333 310L334 311L332 313L332 317L330 315L329 303L327 303L328 306L326 307L326 309L325 306L323 306L323 312L325 315L323 317L321 317L319 314L318 315L319 323L321 325L321 323L324 324L324 347L322 346L321 349L319 349L318 352L314 354L314 359L311 360L311 364L313 366L311 370L312 371L318 368L326 368L324 370L327 378L326 379L328 381L331 380L334 383L332 383L333 384L329 392L336 393L339 395L338 396L339 398L341 398L341 401L347 400L351 397L352 402L358 405L360 403L358 402L359 396L356 391L358 390L358 388L364 389L367 385L373 389L377 385L379 387L382 386L384 388L386 384L389 386L394 383L394 380L399 378L401 378L402 380L402 378L404 378L403 377L405 375L409 375L408 368L401 369L398 367L397 364L392 365L390 363L390 359L394 354L391 352L391 350L390 351L388 349L388 347L389 348L392 339L389 335L388 337L381 337L382 333L380 331L384 326L385 328L390 326L390 328L394 328L397 326L398 327L399 324z"/><path class="leaflet-interactive" stroke="#3388ff" stroke-opacity="0" stroke-width="3" stroke-linecap="round" stroke-linejoin="round" fill="#eee" fill-opacity="0.5" fill-rule="evenodd" d="M222 210L216 207L215 208L213 206L212 207L209 205L203 205L183 209L179 215L178 214L172 216L171 214L163 217L161 220L147 220L145 216L142 217L139 215L138 218L136 218L135 221L132 222L124 220L114 221L115 223L111 226L112 227L110 228L109 232L103 234L100 233L100 235L96 239L96 244L103 254L103 259L100 262L97 259L97 257L93 259L93 264L97 268L97 275L102 280L108 280L113 286L114 285L123 289L124 293L126 293L125 292L128 287L134 289L135 288L135 290L138 293L143 297L148 298L150 302L153 304L157 302L160 308L162 308L166 312L169 310L170 315L176 315L180 320L181 317L184 320L188 318L193 321L204 321L204 319L205 320L210 317L212 319L211 326L214 329L216 327L215 324L222 316L226 316L232 319L233 318L237 321L240 318L242 319L244 322L243 325L246 325L249 328L249 334L255 332L266 333L274 324L285 320L286 317L291 315L299 317L301 320L304 320L306 322L309 319L309 315L311 315L310 314L312 312L317 317L319 315L318 314L320 315L321 318L324 315L323 306L325 306L326 309L327 308L326 307L328 303L328 292L326 284L327 283L323 277L323 275L326 275L322 271L318 262L314 259L308 259L308 264L303 267L301 266L303 270L299 270L298 267L296 267L296 272L293 269L291 271L289 269L288 270L286 266L287 264L285 264L285 262L283 263L284 262L278 258L274 260L273 259L272 261L268 259L265 260L262 257L251 257L249 254L245 254L242 251L235 252L229 249L228 247L226 247L225 243L221 239L223 236L223 228L220 227L219 220L222 219L223 214L218 213L218 211L221 210z"/><path class="leaflet-interactive" stroke="#3388ff" stroke-opacity="0" stroke-width="3" stroke-linecap="round" stroke-linejoin="round" fill="#eee" fill-opacity="0.5" fill-rule="evenodd" d="M457 231L455 230L459 218L457 198L462 189L458 181L459 178L461 178L463 175L464 168L466 167L467 164L465 160L460 164L455 162L454 165L451 164L452 166L441 178L440 180L442 182L440 184L439 182L439 188L431 188L427 185L423 187L421 192L422 199L427 200L430 203L437 206L437 220L435 222L427 221L426 222L428 226L424 227L421 227L418 224L413 224L414 229L411 231L415 235L413 235L414 237L412 239L414 244L413 246L405 246L404 249L407 250L405 254L401 254L402 257L405 255L412 258L416 256L419 257L421 261L423 259L429 264L435 263L440 267L448 270L448 258L453 259L454 256L450 254L449 251L447 251L449 249L458 251L459 249L459 251L461 252L464 249L464 245L460 241L460 237L457 235L457 231zM464 246L464 247zM408 256L408 256z"/><path class="leaflet-interactive" stroke="#3388ff" stroke-opacity="0" stroke-width="3" stroke-linecap="round" stroke-linejoin="round" fill="#eee" fill-opacity="0.5" fill-rule="evenodd" d="M413 215L413 219L411 222L409 219L406 220L408 219L405 219L405 217L401 215L399 212L402 209L398 202L399 199L395 197L393 194L391 194L392 191L386 191L381 186L378 185L378 178L383 174L384 170L387 167L385 162L378 163L373 167L367 165L362 166L360 167L362 170L359 173L355 172L352 169L353 168L348 168L348 162L344 163L342 159L335 155L332 155L336 154L338 151L341 150L342 144L339 140L329 141L329 143L327 142L325 143L325 145L324 142L320 145L320 140L312 132L314 129L307 111L298 112L295 114L293 116L295 123L285 130L283 127L279 131L277 131L269 139L268 144L258 145L256 159L252 165L253 168L256 166L260 166L261 170L269 170L268 171L270 173L274 172L277 177L284 177L287 179L290 177L296 181L298 179L301 180L301 176L305 174L304 168L306 165L317 172L319 168L322 169L325 167L329 169L328 170L337 178L341 180L339 176L340 175L344 179L348 181L349 180L349 182L352 185L357 185L363 189L369 196L367 196L367 198L370 201L368 201L373 208L373 212L371 214L370 213L369 215L371 218L370 219L368 217L366 220L365 219L366 222L361 228L361 231L364 234L360 238L350 234L347 237L352 242L352 244L356 243L357 246L360 245L361 247L359 249L361 251L363 249L364 250L365 247L367 247L363 240L369 238L368 237L371 235L375 238L375 242L386 245L389 249L388 254L391 257L399 258L401 254L405 254L407 250L404 249L405 246L414 245L412 240L415 234L411 232L413 229L413 225L417 224L423 227L428 225L426 222L427 221L435 222L437 220L435 213L438 211L438 209L436 205L425 200L420 195L415 195L415 200L411 204L413 204L413 208L418 209L418 214L416 216L413 215zM408 218L408 218zM371 206L371 207zM408 219L408 220zM413 215L413 215z"/><path class="leaflet-interactive" stroke="#3388ff" stroke-opacity="0" stroke-width="3" stroke-linecap="round" stroke-linejoin="round" fill="#eee" fill-opacity="0.5" fill-rule="evenodd" d="M371 206L371 204L368 201L370 201L367 197L368 194L361 187L360 188L357 185L354 186L349 182L349 180L348 181L347 179L343 179L340 175L339 176L341 180L337 178L328 170L329 169L325 167L323 169L320 168L317 172L306 165L304 167L304 175L303 174L301 176L301 179L297 179L297 181L293 180L290 177L288 179L284 177L277 178L275 172L268 172L269 171L267 170L262 170L261 166L256 166L250 169L233 173L230 176L226 176L228 180L230 178L231 187L238 191L240 197L236 199L235 198L233 201L234 204L237 204L238 210L235 211L226 208L224 210L219 211L218 213L223 214L222 219L219 220L220 226L223 227L223 237L221 239L225 243L225 245L233 251L242 251L245 254L249 254L251 257L256 256L260 258L261 257L265 260L268 259L272 261L278 257L281 261L287 264L286 267L288 270L292 269L296 272L295 269L297 267L301 271L302 266L306 266L308 262L309 263L308 259L313 259L309 257L309 253L311 253L310 251L313 247L309 245L309 241L311 241L313 239L312 237L315 236L317 238L321 238L325 250L329 252L330 255L331 254L336 256L337 253L340 254L340 258L342 256L344 256L346 259L353 257L351 250L354 249L354 251L357 251L359 247L356 243L353 244L352 241L349 240L348 235L349 234L360 238L364 234L361 231L361 227L366 223L365 219L366 220L367 217L370 219L371 218L369 215L372 214L372 210L374 208L371 207z"/><path class="leaflet-interactive" stroke="#3388ff" stroke-opacity="0" stroke-width="3" stroke-linecap="round" stroke-linejoin="round" fill="#eee" fill-opacity="0.5" fill-rule="evenodd" d="M421 196L423 187L426 186L421 181L413 179L418 169L415 163L410 165L406 171L406 179L404 181L404 186L388 191L392 191L391 194L398 197L400 201L398 201L398 203L402 209L399 212L411 222L413 220L413 215L415 216L418 214L418 210L414 208L411 203L412 204L413 201L415 200L413 198L414 195L421 196zM408 219L406 219L408 219zM408 219L408 219z"/><path class="leaflet-interactive" stroke="#3388ff" stroke-opacity="0" stroke-width="3" stroke-linecap="round" stroke-linejoin="round" fill="#eee" fill-opacity="0.5" fill-rule="evenodd" d="M298 112L292 104L288 92L286 92L287 89L281 88L265 77L242 75L236 73L234 71L233 65L237 60L235 55L237 53L237 49L231 39L230 34L226 31L226 29L222 30L219 26L214 27L213 25L211 25L209 21L202 16L203 15L200 12L200 6L196 8L191 7L188 9L188 15L184 19L183 18L176 21L174 25L176 40L173 43L171 43L168 46L166 44L156 44L147 40L146 41L137 65L137 68L141 71L140 74L137 72L134 73L130 71L126 73L125 72L123 74L117 74L110 78L116 82L116 92L120 100L120 106L116 108L118 110L116 110L113 114L115 120L113 120L113 122L107 126L96 130L96 132L95 131L91 133L86 137L87 138L76 138L74 140L73 145L70 148L69 147L63 149L61 145L62 144L57 147L53 146L53 149L43 153L41 156L42 160L37 163L41 168L40 173L42 175L47 173L53 177L53 188L56 191L56 193L48 195L50 197L53 196L53 198L59 198L60 201L64 201L66 204L65 209L68 213L67 214L72 213L72 215L76 217L82 219L89 219L91 229L98 234L110 232L112 227L111 226L116 219L120 221L127 220L132 222L135 221L134 219L136 219L139 215L142 217L145 216L147 220L161 220L164 217L171 214L174 216L178 215L181 213L183 209L188 207L190 208L196 205L197 207L209 205L220 210L224 210L226 208L235 211L238 210L237 205L233 202L233 200L235 198L236 199L240 197L240 195L238 191L232 187L231 178L228 180L226 177L230 176L233 173L244 171L251 168L256 159L258 145L268 144L269 139L277 131L279 131L283 127L285 129L293 125L295 123L293 117L295 114z"/><path class="leaflet-interactive" stroke="#3388ff" stroke-opacity="0" stroke-width="3" stroke-linecap="round" stroke-linejoin="round" fill="#eee" fill-opacity="0.5" fill-rule="evenodd" d="M571 389L574 391L574 395L576 396L577 388L583 380L585 369L588 364L587 360L589 357L584 353L577 358L569 372L567 373L567 381L570 388zM618 346L618 345zM606 348L606 348zM562 375L562 376zM608 346L608 345zM561 374L560 375L561 374zM561 377L561 378zM561 374L562 374zM590 349L590 349zM583 386L584 386zM584 393L583 394L585 394L584 393zM590 351L590 351zM560 379L560 379zM570 390L571 390z"/><path class="leaflet-interactive" stroke="#3388ff" stroke-opacity="0" stroke-width="3" stroke-linecap="round" stroke-linejoin="round" fill="#eee" fill-opacity="0.5" fill-rule="evenodd" d="M498 388L496 392L499 390L501 392L501 390L503 390L500 389L502 388L499 388zM500 392L499 391L500 392zM502 390L502 390zM502 390L502 390zM502 390L502 390zM502 391L502 391zM502 390L502 390zM502 390L502 390zM502 391L502 391z"/><path class="leaflet-interactive" stroke="#3388ff" stroke-opacity="0" stroke-width="3" stroke-linecap="round" stroke-linejoin="round" fill="#eee" fill-opacity="0.5" fill-rule="evenodd" d="M493 393L493 393zM493 392L493 392z"/><path class="leaflet-interactive" stroke="#3388ff" stroke-opacity="0" stroke-width="3" stroke-linecap="round" stroke-linejoin="round" fill="#eee" fill-opacity="0.5" fill-rule="evenodd" d="M595 376L598 362L595 376zM580 409L588 398L580 409zM560 443L567 430L560 443zM556 478L556 466L556 478zM451 476L445 464L450 473z"/></g></svg>